<?xml version="1.0" standalone="no"?>
<!DOCTYPE svg PUBLIC "-//W3C//DTD SVG 20010904//EN"
 "http://www.w3.org/TR/2001/REC-SVG-20010904/DTD/svg10.dtd">
<svg version="1.0" xmlns="http://www.w3.org/2000/svg"
 width="360.000000pt" height="360.000000pt" viewBox="0 0 360.000000 360.000000"
 preserveAspectRatio="xMidYMid meet">
<metadata>
Created by potrace 1.14, written by Peter Selinger 2001-2017
</metadata>
<g transform="translate(0.000000,360.000000) scale(0.100000,-0.100000)"
fill="#000000" stroke="none">
<path d="M2360 2565 c-320 -320 -401 -395 -422 -395 -20 0 -92 53 -275 204
-256 209 -299 239 -367 249 -77 12 -128 -9 -301 -123 -89 -60 -170 -119 -179
-131 -25 -37 -20 -84 13 -121 25 -28 36 -33 73 -32 37 0 62 13 194 102 84 56
159 102 167 102 9 0 129 -93 268 -206 139 -114 268 -216 288 -228 29 -17 52
-21 116 -21 69 0 86 4 125 27 25 15 224 206 443 425 l397 399 0 43 c0 60 -41
101 -101 101 l-43 0 -396 -395z"/>
<path d="M587 2869 c-48 -28 -47 2 -47 -1069 0 -1076 -2 -1042 49 -1070 13 -7
414 -10 1213 -10 1309 0 1221 -4 1248 59 17 42 5 95 -27 121 -26 20 -33 20
-1149 20 l-1124 0 -2 951 -3 951 -33 29 c-34 31 -89 39 -125 18z"/>
<path d="M2729 2461 l-29 -29 0 -676 0 -676 29 -32 c40 -45 96 -46 141 -3 l30
29 0 679 0 679 -29 29 c-23 23 -38 29 -71 29 -33 0 -48 -6 -71 -29z"/>
<path d="M1307 2129 c-46 -27 -47 -38 -47 -551 0 -364 3 -489 13 -507 6 -14
27 -34 46 -45 31 -18 37 -18 75 -5 77 27 76 18 76 556 0 270 -4 482 -9 496
-17 43 -51 67 -95 67 -23 0 -49 -5 -59 -11z"/>
<path d="M2395 2048 c-56 -31 -55 -14 -55 -510 l0 -456 25 -30 c43 -51 107
-51 154 -1 21 22 21 30 21 482 0 295 -4 465 -10 478 -22 40 -93 60 -135 37z"/>
<path d="M954 1849 c-11 -6 -28 -23 -37 -39 -15 -25 -17 -68 -17 -372 0 -253
4 -350 13 -368 7 -14 29 -33 50 -43 48 -24 100 -9 128 37 18 29 19 50 17 384
l-3 354 -33 29 c-34 31 -78 37 -118 18z"/>
<path d="M1671 1846 c-49 -27 -50 -37 -51 -413 l0 -351 25 -30 c32 -39 72 -48
119 -28 65 27 67 41 64 433 l-3 345 -33 29 c-36 32 -80 38 -121 15z"/>
<path d="M2044 1780 c-12 -4 -31 -21 -43 -36 -20 -26 -21 -35 -21 -345 l0
-317 25 -30 c32 -39 74 -48 117 -28 62 30 63 31 66 356 4 330 0 359 -51 390
-34 21 -59 24 -93 10z"/>
</g>
</svg>
